<?xml version="1.0" encoding="utf-8"?>
<!-- Generator: Adobe Illustrator 19.2.0, SVG Export Plug-In . SVG Version: 6.00 Build 0)  -->
<svg version="1.1" id="Layer_1" xmlns="http://www.w3.org/2000/svg" xmlns:xlink="http://www.w3.org/1999/xlink" x="0px" y="0px"
	 viewBox="0 0 40 40" style="enable-background:new 0 0 40 40;" xml:space="preserve">
<style type="text/css">
	.st0{fill:#EB1D24;}
	.st1{fill:#FFFFFF;}
</style>
<g>
	<circle class="st0" cx="20" cy="20" r="20"/>
	<path class="st1" d="M10.4,25.8c0,0.5,0.2,1.1,0.6,1.5l2.1,2.1c0.8,0.8,2.2,0.8,2.9,0l4-4l4,4c0.4,0.4,0.9,0.6,1.5,0.6
		c0.5,0,1.1-0.2,1.5-0.6l2.1-2.1c0.4-0.4,0.6-0.9,0.6-1.5c0-0.6-0.2-1.1-0.6-1.5l-4-4l4-4c0.4-0.4,0.6-0.9,0.6-1.5
		c0-0.5-0.2-1.1-0.6-1.5l-2.1-2.1c-0.8-0.8-2.2-0.8-2.9,0l-4,4l-4-4c-0.8-0.8-2.2-0.8-2.9,0L11,13.3c-0.4,0.4-0.6,0.9-0.6,1.5
		c0,0.5,0.2,1.1,0.6,1.5l4,4l-4,4C10.6,24.7,10.4,25.2,10.4,25.8z M11.9,25.2l4.9-4.9l-4.9-4.9c-0.2-0.2-0.2-0.4-0.2-0.6
		c0-0.2,0.1-0.4,0.2-0.6L14,12c0.3-0.3,0.9-0.3,1.2,0l4.9,4.9l4.9-4.9c0.3-0.3,0.9-0.3,1.2,0l2.1,2.1c0.2,0.2,0.2,0.4,0.2,0.6
		c0,0.2-0.1,0.4-0.2,0.6l-4.9,4.9l4.9,4.9c0.2,0.2,0.2,0.4,0.2,0.6c0,0.2-0.1,0.4-0.2,0.6l-2.1,2.1c-0.3,0.3-0.9,0.3-1.2,0l-4.9-4.9
		l-4.9,4.9c-0.3,0.3-0.9,0.3-1.2,0l-2.1-2.1c-0.2-0.2-0.2-0.4-0.2-0.6C11.6,25.5,11.7,25.3,11.9,25.2z"/>
</g>
</svg>
