<?xml version="1.0" encoding="utf-8"?>
<!-- Generator: Adobe Illustrator 19.2.0, SVG Export Plug-In . SVG Version: 6.00 Build 0)  -->
<svg version="1.1" id="Layer_1" xmlns="http://www.w3.org/2000/svg" xmlns:xlink="http://www.w3.org/1999/xlink" x="0px" y="0px"
	 viewBox="0 0 40 40" style="enable-background:new 0 0 40 40;" xml:space="preserve">
<style type="text/css">
	.st0{fill:#00A651;}
	.st1{fill:#FFFFFF;}
</style>
<g>
	<circle class="st0" cx="20" cy="20" r="20"/>
	<path class="st1" d="M9.2,20.2c0,0.5,0.2,0.9,0.5,1.3l6.5,6.5c0.3,0.3,0.8,0.5,1.3,0.5c0.5,0,0.9-0.2,1.3-0.5L30,16.7
		c0.3-0.3,0.5-0.8,0.5-1.3c0-0.5-0.2-0.9-0.5-1.3l-1.8-1.8c-0.7-0.7-1.9-0.7-2.5,0l-8.2,8.2L14,17.1c-0.7-0.7-1.9-0.7-2.5,0
		l-1.8,1.8C9.4,19.2,9.2,19.7,9.2,20.2z M10.5,19.6l1.8-1.8c0.1-0.1,0.3-0.2,0.5-0.2c0.2,0,0.4,0.1,0.5,0.2l4.2,4.2l8.9-9
		c0.3-0.3,0.8-0.3,1,0l1.8,1.8c0.1,0.1,0.2,0.3,0.2,0.5c0,0.2-0.1,0.4-0.2,0.5L18,27.2c-0.3,0.3-0.8,0.3-1,0l-6.5-6.5
		c-0.1-0.1-0.2-0.3-0.2-0.5C10.2,20,10.3,19.8,10.5,19.6z"/>
</g>
</svg>
