<?xml version="1.0" encoding="utf-8"?>
<!-- Generator: Adobe Illustrator 19.2.0, SVG Export Plug-In . SVG Version: 6.00 Build 0)  -->
<svg version="1.1" id="Layer_1" xmlns="http://www.w3.org/2000/svg" xmlns:xlink="http://www.w3.org/1999/xlink" x="0px" y="0px"
	 viewBox="0 0 50 40" style="enable-background:new 0 0 50 40;" xml:space="preserve">
<style type="text/css">
	.st0{fill:#FFFFFF;}
	.st1{fill:none;stroke:#FFFFFF;stroke-width:2;stroke-miterlimit:10;}
</style>
<title>audio_on</title>
<g>
	<path class="st0" d="M6.7,13.6c-1,0-1.8,0.8-1.8,1.7l0,0v9.2c0,1,0.9,1.8,1.8,1.8l0,0h5.8V13.6H6.7z M14,29.1H6.7
		C4.2,29.2,2,27.2,2,24.6v-9.2c0.1-2.5,2.2-4.5,4.7-4.5H14c0.8,0,1.4,0.6,1.4,1.4v15.5C15.4,28.5,14.8,29.1,14,29.1L14,29.1z"/>
	<path class="st0" d="M22.2,7.7c-2.7-0.1-4.9,2-5,4.7l0,0v15.1c0.1,2.7,2.3,4.8,5,4.7l0,0h3.3V7.7H22.2z M27,35h-4.8
		c-4.2,0.1-7.7-3.2-7.9-7.4V12.4C14.5,8.2,18,4.9,22.2,5H27c0.8,0,1.4,0.6,1.4,1.4v27.3C28.4,34.4,27.8,35,27,35z"/>
	<path class="st1" d="M33.2,13.9c3.4-0.2,6.3,2.3,6.6,5.7c0.2,3.4-2.3,6.3-5.7,6.6c-0.3,0-0.6,0-0.9,0"/>
	<path class="st1" d="M36.3,9c6.5,0,10.8,4.9,10.8,11s-4.3,11-10.8,11"/>
</g>
</svg>
