<?xml version="1.0" encoding="utf-8"?>
<!-- Generator: Adobe Illustrator 19.2.0, SVG Export Plug-In . SVG Version: 6.00 Build 0)  -->
<svg version="1.1" id="Layer_1" xmlns="http://www.w3.org/2000/svg" xmlns:xlink="http://www.w3.org/1999/xlink" x="0px" y="0px"
	 viewBox="0 0 50 40" style="enable-background:new 0 0 50 40;" xml:space="preserve">
    <style>
      .cls-1 {
        fill: #fff;
      }

      .cls-2 {
        fill: none;
        stroke: #fff;
        stroke-miterlimit: 10;
        stroke-width: 2px;
      }
    </style>
  </defs>
  <title>audio_rp</title>
  <g>
    <path class="cls-1" d="M497.74,461.85a1.8,1.8,0,0,0-1.85,1.75v9.24a1.8,1.8,0,0,0,1.85,1.75h5.84V461.85h-5.84ZM505,477.31h-7.29a4.62,4.62,0,0,1-4.74-4.48v-9.24a4.62,4.62,0,0,1,4.74-4.48H505a1.41,1.41,0,0,1,1.44,1.36v15.46A1.41,1.41,0,0,1,505,477.31Z" transform="translate(-493 -453.21)"/>
    <path class="cls-1" d="M513.2,455.94a4.85,4.85,0,0,0-5,4.7v15.15a4.85,4.85,0,0,0,5,4.7h3.31V455.94H513.2ZM518,483.21H513.2a7.66,7.66,0,0,1-7.86-7.42V460.64a7.66,7.66,0,0,1,7.86-7.42H518a1.41,1.41,0,0,1,1.44,1.36v27.27A1.41,1.41,0,0,1,518,483.21Z" transform="translate(-493 -453.21)"/>
  </g>
  <g>
    <polyline class="cls-2" points="36 13.43 31 18.43 36 23.43"/>
    <path class="cls-2" d="M531,472a6.14,6.14,0,1,0,0-12.25h-8" transform="translate(-493 -453.21)"/>
    <line class="cls-2" x1="39" y1="18.79" x2="31" y2="18.79"/>
  </g>
</svg>
