<?xml version="1.0" encoding="utf-8"?>
<!-- Generator: Adobe Illustrator 19.2.0, SVG Export Plug-In . SVG Version: 6.00 Build 0)  -->
<svg version="1.1" id="Layer_1" xmlns="http://www.w3.org/2000/svg" xmlns:xlink="http://www.w3.org/1999/xlink" x="0px" y="0px"
	 viewBox="0 0 40 30" style="enable-background:new 0 0 40 30;" xml:space="preserve">
<style type="text/css">
	.st0{fill:#FFFFFF;}
</style>
<title>cc_icon</title>
<path class="st0" d="M36.3,0H3.8C1.7,0,0,1.7,0,3.8l0,0v22.5C0,28.3,1.7,30,3.8,30h32.5c2.1,0,3.8-1.7,3.8-3.8V3.8
	C40,1.7,38.3,0,36.3,0L36.3,0z M35.8,26.3H4.2c-0.3,0-0.5-0.2-0.5-0.5l0,0V4.2c0-0.3,0.2-0.5,0.5-0.5l0,0h31.6
	c0.3,0,0.5,0.2,0.5,0.5l0,0v21.6C36.2,26,36,26.2,35.8,26.3z M19.3,19.5c0.1,0.2,0.1,0.4,0,0.6c-4.2,4.4-13.5,2.5-13.5-5.3
	c0-7.6,9.5-9.3,13.5-5.5c0.1,0.1,0.2,0.3,0.1,0.4c0,0,0,0,0,0.1L18,12.2c-0.1,0.2-0.4,0.3-0.7,0.2c0,0,0,0,0,0
	c-3.2-2.5-7.4-1.2-7.4,2.4s4,5.5,7.2,2.5c0.2-0.2,0.5-0.2,0.7,0c0,0,0,0,0,0.1L19.3,19.5L19.3,19.5L19.3,19.5z M34.2,19.5
	c0.1,0.2,0.1,0.4,0,0.6c-4.2,4.5-13.5,2.5-13.5-5.3c0-7.6,9.5-9.3,13.5-5.5c0.1,0.1,0.2,0.3,0.1,0.4c0,0,0,0,0,0.1l-1.4,2.4
	c-0.1,0.2-0.4,0.3-0.7,0.2c0,0,0,0,0,0c-3.2-2.5-7.4-1.2-7.4,2.4s4,5.5,7.2,2.5c0.2-0.2,0.5-0.2,0.7,0c0,0,0,0,0,0.1L34.2,19.5
	L34.2,19.5L34.2,19.5z"/>
</svg>
