<?xml version="1.0" encoding="utf-8"?>
<!-- Generator: Adobe Illustrator 19.2.0, SVG Export Plug-In . SVG Version: 6.00 Build 0)  -->
<svg version="1.1" id="Layer_1" xmlns="http://www.w3.org/2000/svg" xmlns:xlink="http://www.w3.org/1999/xlink" x="0px" y="0px"
	 viewBox="0 0 40 30" style="enable-background:new 0 0 40 30;" xml:space="preserve">
<style type="text/css">
	.st0{fill:#414042;}
	.st1{fill:#00A651;}
	.st2{fill:#FFFFFF;}
</style>
<title>cc_icon</title>
<path class="st0" d="M36.3,0H3.8C1.7,0,0,1.7,0,3.8l0,0v22.5c0,2,1.7,3.7,3.8,3.7h32.5c2.1,0,3.8-1.7,3.8-3.8V3.8
	C40,1.7,38.3,0,36.3,0L36.3,0z M35.8,26.3H4.2c-0.3,0-0.5-0.2-0.5-0.5l0,0V4.2c0-0.3,0.2-0.5,0.5-0.5l0,0h31.6
	c0.3,0,0.5,0.2,0.5,0.5l0,0v21.6C36.2,26,36,26.2,35.8,26.3z M19.5,18.6c0.1,0.2,0.1,0.3,0,0.5c-3.4,3.5-10.8,2-10.8-4.2
	c0-6.1,7.6-7.4,10.8-4.4c0.1,0.1,0.2,0.2,0.1,0.3c0,0,0,0,0,0.1l-1.1,1.9c-0.1,0.2-0.3,0.2-0.6,0.2l0,0c-2.6-2-5.9-1-5.9,1.9
	s3.2,4.4,5.8,2c0.2-0.2,0.4-0.2,0.6,0c0,0,0,0,0,0.1L19.5,18.6L19.5,18.6L19.5,18.6z M31.4,18.6c0.1,0.2,0.1,0.3,0,0.5
	c-3.4,3.6-10.8,2-10.8-4.2c0-6.1,7.6-7.4,10.8-4.4c0.1,0.1,0.2,0.2,0.1,0.3c0,0,0,0,0,0.1l-1.1,1.9c-0.1,0.2-0.3,0.2-0.6,0.2l0,0
	c-2.6-2-5.9-1-5.9,1.9s3.2,4.4,5.8,2c0.2-0.2,0.4-0.2,0.6,0c0,0,0,0,0,0.1L31.4,18.6L31.4,18.6L31.4,18.6z"/>
<g>
	<circle class="st1" cx="35.5" cy="4.5" r="4.5"/>
	<polygon class="st2" points="38.3,3 37.6,2.2 34.4,5.4 33.4,4.3 32.6,5.1 34.4,6.9 34.4,6.8 34.4,6.9 	"/>
</g>
</svg>
