<?xml version="1.0" encoding="utf-8"?>
<!-- Generator: Adobe Illustrator 19.2.0, SVG Export Plug-In . SVG Version: 6.00 Build 0)  -->
<svg version="1.1" id="Layer_1" xmlns="http://www.w3.org/2000/svg" xmlns:xlink="http://www.w3.org/1999/xlink" x="0px" y="0px"
	 viewBox="0 0 40 30" style="enable-background:new 0 0 40 30;" xml:space="preserve">
<style type="text/css">
	.st0{fill:#414042;}
</style>
<title>help_icon</title>
<path class="st0" d="M20,0C11.7,0,5,6.7,5,15s6.7,15,15,15s15-6.7,15-15S28.3,0,20,0z M20,27.1c-6.7,0-12.1-5.4-12.1-12.1
	S13.3,2.9,20,2.9S32.1,8.3,32.1,15C32.1,21.7,26.7,27.1,20,27.1C20,27.1,20,27.1,20,27.1z M26.5,11.7c0,4.1-4.4,4.1-4.4,5.6v0.4
	c0,0.4-0.3,0.7-0.7,0.7c0,0,0,0,0,0h-2.8c-0.4,0-0.7-0.3-0.7-0.7c0,0,0,0,0,0v-0.5c0-2.2,1.6-3,2.9-3.7c1.1-0.6,1.7-1,1.7-1.8
	c0-1-1.3-1.7-2.4-1.7c-1.4,0-2,0.7-3,1.8c-0.2,0.3-0.7,0.4-1,0.1l-1.7-1.3c-0.3-0.2-0.4-0.7-0.2-1c1.3-2.1,3.6-3.4,6.1-3.3
	C23.3,6.3,26.5,8.6,26.5,11.7z M22.5,21.8c0,1.4-1.1,2.5-2.5,2.5c-1.4,0-2.5-1.1-2.5-2.5c0-1.4,1.1-2.5,2.5-2.5
	C21.4,19.2,22.5,20.4,22.5,21.8C22.5,21.8,22.5,21.8,22.5,21.8L22.5,21.8z"/>
</svg>
