<?xml version="1.0" encoding="utf-8"?>
<!-- Generator: Adobe Illustrator 19.2.0, SVG Export Plug-In . SVG Version: 6.00 Build 0)  -->
<svg version="1.1" id="Layer_1" xmlns="http://www.w3.org/2000/svg" xmlns:xlink="http://www.w3.org/1999/xlink" x="0px" y="0px"
	 viewBox="0 0 79.4 79.4" style="enable-background:new 0 0 79.4 79.4;" xml:space="preserve">
<style type="text/css">
	.st0{fill:#FFFFFF;}
	.st1{fill:#B0B0B0;}
</style>
<path class="st0" d="M79.4,39.7C79.4,17.8,61.6,0,39.7,0S0,17.8,0,39.7s17.8,39.7,39.7,39.7C61.6,79.4,79.4,61.6,79.4,39.7z"/>
<path class="st1" d="M79.4,39.6C79.3,17.7,61.5,0,39.6,0C17.7,0.1,0,17.9,0,39.8c0.1,21.9,17.9,39.6,39.8,39.6
	C61.7,79.3,79.5,61.5,79.4,39.6z M8.7,39.8c0-17.1,13.8-31.1,31-31.1c17.1,0,31.1,13.8,31.1,31c0,17.1-13.8,31.1-30.9,31.1
	C22.6,70.8,8.7,56.9,8.7,39.8z"/>
<g>
	
		<rect x="32.9" y="18.3" transform="matrix(0.7071 -0.7071 0.7071 0.7071 -16.4454 39.749)" class="st1" width="13.7" height="42.9"/>
	
		<rect x="18.3" y="32.9" transform="matrix(0.7071 -0.7071 0.7071 0.7071 -16.4724 39.7238)" class="st1" width="42.9" height="13.7"/>
</g>
</svg>
