<svg id="Layer_1" data-name="Layer 1" xmlns="http://www.w3.org/2000/svg" width="64.11" height="65.92" viewBox="0 0 64.11 65.92">
  <defs>
    <style>
      .cls-1 {
        fill: #fff;
      }
    </style>
  </defs>
  <title>watch_listen_icon</title>
  <g>
    <path class="cls-1" d="M443.18,289.91h6.17A28.53,28.53,0,0,0,392.67,291h7a3.76,3.76,0,0,1,1.81.48,20.54,20.54,0,0,1,38.94-.42,3.8,3.8,0,0,1,2.71-1.14h0Zm-22.1-18.08a26,26,0,0,0-22.5,13,24.18,24.18,0,0,1,45,0,26,26,0,0,0-22.5-13h0Zm0,0" transform="translate(-389.39 -265.13)"/>
    <path class="cls-1" d="M403.52,308.48v1.07a3.8,3.8,0,0,1-3.33,3.76,26,26,0,0,0,42.54-1.08,3.8,3.8,0,0,1-3.35-3.76v-1.3a20.52,20.52,0,0,1-35.86,1.32h0Zm0,0" transform="translate(-389.39 -265.13)"/>
    <path class="cls-1" d="M413.66,292.63a4,4,0,1,1-4,4,4,4,0,0,1,4-4h0Zm0,0" transform="translate(-389.39 -265.13)"/>
    <g>
      <path class="cls-1" d="M428.87,292.63a4,4,0,1,1-4,4,4,4,0,0,1,4-4h0Zm0,0" transform="translate(-389.39 -265.13)"/>
      <path class="cls-1" d="M449,311.72c0-.18,0-0.36,0-0.54h1.72a2.72,2.72,0,0,0,2.72-2.72V293.71a2.72,2.72,0,0,0-2.72-2.72h-7.61a2.75,2.75,0,0,0-2.72,2.72v14.75a2.72,2.72,0,0,0,2.72,2.72h3.72c0,0.18,0,.36,0,0.54s0,0.36,0,.54c-0.29,5.24-.71,11,2,15.4-8-2.38-16.32-2.09-24.76-2a53.53,53.53,0,0,1-16.83-2c-4.27-1.35-9.61-5.45-10.41-10.25,0-.18,0-0.36-0.06-0.54s0-.36,0-0.54h3a2.72,2.72,0,0,0,2.72-2.72V294.8a2.72,2.72,0,0,0-2.72-2.72h-7.61a2.72,2.72,0,0,0-2.72,2.72v14.75a2.72,2.72,0,0,0,2.72,2.72h2.37c0,0.18,0,.36,0,0.54s0,0.36,0,.54c0.74,7,9.18,11.69,15.39,13.28,13.79,3.55,28.26-1.39,41.76,4.32,1.27,0.54,2.38-1.33,1.1-1.88l-0.22-.09a1,1,0,0,0-.28-0.47c-4.24-4-3.66-10.55-3.28-16.26,0-.18,0-0.36,0-0.54h0Zm0,0" transform="translate(-389.39 -265.13)"/>
    </g>
  </g>
</svg>
